<svg width="41" height="41" viewBox="0 0 41 41" fill="none" xmlns="http://www.w3.org/2000/svg">
<path d="M21.2403 32.1716L29.7205 37.7693C30.8141 38.4865 32.1602 37.4194 31.8405 36.1075L29.384 26.0666C29.3175 25.7883 29.3281 25.4961 29.4144 25.2237C29.5007 24.9514 29.6593 24.7099 29.8719 24.5272L37.4771 17.9324C38.4698 17.0752 37.965 15.3434 36.6695 15.256L26.7423 14.5913C26.4715 14.5749 26.2111 14.4768 25.9929 14.3091C25.7748 14.1413 25.6084 13.9111 25.514 13.6466L21.8124 3.95559C21.7144 3.67554 21.5359 3.43361 21.3011 3.26266C21.0663 3.0917 20.7866 3 20.5 3C20.2134 3 19.9337 3.0917 19.6989 3.26266C19.4641 3.43361 19.2856 3.67554 19.1876 3.95559L15.486 13.6466C15.3916 13.9111 15.2252 14.1413 15.0071 14.3091C14.7889 14.4768 14.5285 14.5749 14.2577 14.5913L4.33053 15.256C3.03496 15.3434 2.53019 17.0752 3.5229 17.9324L11.1281 24.5272C11.3407 24.7099 11.4993 24.9514 11.5856 25.2237C11.6719 25.4961 11.6825 25.7883 11.616 26.0666L9.34458 35.3728C8.95759 36.9471 10.5729 38.2241 11.8684 37.367L19.7597 32.1716C19.981 32.0253 20.2378 31.9476 20.5 31.9476C20.7622 31.9476 21.019 32.0253 21.2403 32.1716V32.1716Z" stroke="#468ADD" stroke-width="5" stroke-linecap="round" stroke-linejoin="round"/>
</svg>
