<svg width="470" height="150" viewBox="0 0 470 150" fill="none" xmlns="http://www.w3.org/2000/svg">
<path d="M469.42 125.223V124.98V124.737V124.493V124.249V124.004V123.759V123.513V123.267V123.021V122.774V122.526V122.279V122.031V121.782V121.533V121.284V121.034V120.784V120.533V120.282V120.031V119.779V119.527V119.274V119.022V118.768V118.515V118.261V118.006V117.751V117.496V117.241V116.985V116.729V116.472V116.215V115.958V115.7V115.442V115.184V114.925V114.666V114.407V114.147V113.887V113.627V113.366V113.105V112.844V112.583V112.321V112.059V111.796V111.533V111.27V111.007V110.743V110.479V110.215V109.951V109.686V109.421V109.155V108.89V108.624V108.358V108.091V107.824V107.558V107.29V107.023V106.755V106.487V106.219V105.951V105.682V105.413V105.144V104.874V104.605V104.335V104.065V103.795V103.524V103.253V102.982V102.711V102.44V102.168V101.897V101.625V101.353V101.08V100.808V100.535V100.262V99.9892V99.716V99.4426V99.169V98.8953V98.6214V98.3473V98.0731V97.7987V97.5241V97.2495V96.9746V96.6996V96.4245V96.1492V95.8738V95.5983V95.3226V95.0468V94.7709V94.4948V94.2186V93.9423V93.6659V93.3894V93.1128V92.8361V92.5592V92.2823V92.0052V91.7281V91.4509V91.1736V90.8962V90.6187V90.3411V90.0635V89.7858V89.508V89.2301V88.9522V88.6742V88.3961V88.118V87.8399V87.5616V87.2834V87.0051V86.7267V86.4483V86.1699V85.8914V85.6129V85.3343V85.0557V84.7772V84.4985V84.2199V83.9413V83.6626V83.3839V83.1052V82.8265V82.5479V82.2692V81.9905V81.7118V81.4331V81.1545V80.8758V80.5972V80.3186V80.04V79.7615V79.4829V79.2045V78.926V78.6476V78.3692V78.0908V77.8126V77.5343V77.2561V76.978V76.6999V76.4219V76.1439V75.866V75.5882V75.3104V75.0328V74.7551V74.4776V74.2002V73.9228V73.6456V73.3684V73.0913V72.8143V72.5374V72.2606V71.9839V71.7074V71.4309V71.1546V70.8783V70.6022V70.3262V70.0504V69.7746V69.499V69.2235V68.9482V68.673V68.3979V68.123V67.8483V67.5736V67.2992V67.0249V66.7507V66.4767V66.2029V65.9292V65.6558V65.3824V65.1093V64.8363V64.5636V64.291V64.0186V63.7463V63.4743V63.2025V62.9308V62.6594V62.3882V62.1172V61.8463V61.5757V61.3054V61.0352V60.7652V60.4955V60.226V59.9567V59.6877V59.4189V59.1503V58.882V58.6139V58.3461V58.0785V57.8112V57.5441V57.2773V57.0107V56.7444V56.4784V56.2126V55.9471V55.6819V55.4169V55.1523V54.8879V54.6238V54.36V54.0964V53.8332V53.5703V53.3077V53.0453V52.7833V52.5216V52.2602V51.9991V51.7383V51.4779V51.2178V50.958V50.6985V50.4393V50.1805V49.922V49.6639V49.4061V49.1486V48.8915V48.6348V48.3784V48.1223V47.8666V47.6113V47.3564V47.1018V46.8475V46.5937V46.3402V46.0871V45.8344V45.5821V45.3301V45.0786V44.8274V44.5766V44.3263V44.0763V43.8267V43.5776V43.3288V43.0805V42.8326V42.5851V42.338V42.0913V41.8451V41.5993V41.3539V41.109V40.8645V40.6204V40.3768V40.1336V39.8909V39.6486V39.4068V39.1655V38.9246V38.6841V38.4442V38.2047V37.9656V37.7271V37.489V37.2514V37.0143V36.7777V36.5415V36.3059V36.0707V35.8361V35.6019V35.3682V35.1351V34.9025V34.6703V34.4387V34.2076V33.977V33.747V33.5174V33.2884V33.0599V32.832V32.6046V32.3777V32.1514V31.9256V31.7004V31.4757V31.2516V31.028V30.805V30.5825V30.3606V30.1393V29.9186V29.6984V29.4788V29.2597V29.0413V28.8234V28.6062V28.3895V28.1734V27.9579V27.743V27.5287V27.315V27.1019V26.8895V26.6776V26.4664V26.2557V26.0457V25.8363V25.6276V25.4194V25.212V25.0051V24.7989V24.5933V24.3883V24.184V23.9804V23.7774V23.5751V23.3734V23.1724V22.972V22.7723V22.5733V22.3749V22.1773V21.9803V21.784V21.5883V21.3934V21.1991V21.0055V20.8127V20.6205V20.429V20.2382V20.0481V19.8588V19.6701V19.4822V19.295V19.1085V18.9227V18.7376V18.5533V18.3697V18.1868V18.0047V17.8233V17.6427V17.4628V17.2836V17.1052V16.9276V16.7507V16.5745V16.3992V16.2246V16.0507V15.8777V15.7054V15.5338V15.3631V15.1931V15.024V14.8556V14.688V14.5212V14.3552V14.1899V14.0255V13.8619V13.6991V13.5371V13.376V13.2156V13.056V12.8973V12.7394V12.5823V12.4261V12.2707V12.1161V11.9624V11.8095V11.6574V11.5062V11.3559V11.2063V11.0577V10.9099V10.763V10.6169V10.4717V10.3274V10.1839V10.0413V9.89959V9.75876V9.61881V9.47974V9.34157V9.20429V9.0679V8.9324V8.79781V8.66412V8.53134V8.39946V8.2685V8.13845V8.00932V7.8811V7.75381V7.62744V7.50201V7.3775V7.25393V7.13129V7.00959V6.88884V6.76902V6.65016V6.53225V6.41529V6.29929V6.18425V6.07017V5.95705V5.8449V5.73372V5.62352V5.51429V5.40604V5.29877V5.19248V5.08719V4.98288C469.42 2.49983 467.407 0.5 464.92 0.5H5C2.51472 0.5 0.5 2.51472 0.5 5V120.223C0.5 122.708 2.51473 124.723 5.00001 124.723H452.163H452.419L452.567 124.928L469.42 125.223ZM469.42 125.223C469.42 125.224 469.42 125.224 469.42 125.225C469.42 126.93 469.433 129.442 469.449 132.239C469.48 137.903 469.518 144.732 469.46 148.377C469.292 148.134 469.104 147.864 468.896 147.567C468.069 146.388 466.899 144.752 465.401 142.672C464.564 141.511 463.625 140.21 462.585 138.772C459.28 134.165 455.528 128.974 452.569 124.93L469.42 125.223Z" stroke="#E0E0E0"/>
</svg>
