<svg width="377" height="314" viewBox="0 0 377 314" fill="none" xmlns="http://www.w3.org/2000/svg">
<path fill-rule="evenodd" clip-rule="evenodd" d="M1.99452 0.285183C1.331 0.190548 0.666168 0.0954873 0 0V306H376.23V0C375.558 0.0993773 374.887 0.198293 374.218 0.296746C325.968 32.4191 260.377 52.1705 188.115 52.1705C115.844 52.1705 50.2457 32.4144 1.99452 0.285183Z" fill="#468ADD"/>
<path fill-rule="evenodd" clip-rule="evenodd" d="M1.99452 8.28518C1.331 8.19055 0.666168 8.09549 0 8V314H376.23V8C375.558 8.09938 374.887 8.19829 374.218 8.29675C325.968 40.4191 260.377 60.1705 188.115 60.1705C115.844 60.1705 50.2457 40.4144 1.99452 8.28518Z" fill="#272926"/>
</svg>
